<svg width="51" height="47" viewBox="0 0 51 47" fill="none" xmlns="http://www.w3.org/2000/svg">
<path d="M0.684998 36.8625H10.4666V35.0905H2.53583V2.06051H10.4666V0.288513H0.684998V36.8625Z" fill="#00357B"/>
<path d="M10.4665 25.2725H5.80243V27.0445H10.4665V25.2725Z" fill="#00357B"/>
<path d="M10.4665 15.2339H5.80243V17.0059H10.4665V15.2339Z" fill="#00357B"/>
<path d="M10.4665 5.19586H5.80243V6.96785H10.4665V5.19586Z" fill="#00357B"/>
<path d="M10.4668 30.2963H7.67206V32.0683H10.4668V30.2963Z" fill="#00357B"/>
<path d="M10.4668 20.2578H7.67206V22.0297H10.4668V20.2578Z" fill="#00357B"/>
<path d="M10.4668 10.2106H7.67206V11.9826H10.4668V10.2106Z" fill="#00357B"/>
<path d="M17.4627 35.0805H19.3135V19.0173H39.8392V35.0805H41.6901V19.0173H50.0836V17.2453H41.6901V0.278503H39.8392V17.2453H19.3135V0.278503H17.4627V17.2453H12.7986V19.0173H17.4627V35.0805Z" fill="#00357B"/>
<path d="M48.4641 37.5437V45.1367H13.9554V37.5437H12.1046V46.9087H50.315V37.5437H48.4641Z" fill="#00357B"/>
<path d="M40.0522 37.5437H38.2014V42.0092H40.0522V37.5437Z" fill="#00357B"/>
<path d="M29.5671 37.5437H27.7162V42.0092H29.5671V37.5437Z" fill="#00357B"/>
<path d="M19.0823 37.5437H17.2315V42.0092H19.0823V37.5437Z" fill="#00357B"/>
<path d="M45.2991 37.5437H43.4483V40.2194H45.2991V37.5437Z" fill="#00357B"/>
<path d="M34.8143 37.5437H32.9634V40.2194H34.8143V37.5437Z" fill="#00357B"/>
<path d="M24.3295 37.5437H22.4787V40.2194H24.3295V37.5437Z" fill="#00357B"/>
</svg>
