<svg width="51" height="49" viewBox="0 0 51 49" fill="none" xmlns="http://www.w3.org/2000/svg">
<path d="M35.2656 34.3435H33.7031C33.4874 34.3435 33.3125 34.5114 33.3125 34.7185V36.2185C33.3125 36.4256 33.4874 36.5935 33.7031 36.5935H35.2656C35.4814 36.5935 35.6562 36.4256 35.6562 36.2185V34.7185C35.6562 34.5114 35.4814 34.3435 35.2656 34.3435Z" fill="#00357B"/>
<path d="M35.2656 30.5935H33.7031C33.4874 30.5935 33.3125 30.7614 33.3125 30.9685V32.4685C33.3125 32.6756 33.4874 32.8435 33.7031 32.8435H35.2656C35.4814 32.8435 35.6562 32.6756 35.6562 32.4685V30.9685C35.6562 30.7614 35.4814 30.5935 35.2656 30.5935Z" fill="#00357B"/>
<path d="M35.2656 26.8435H33.7031C33.4874 26.8435 33.3125 27.0114 33.3125 27.2185V28.7185C33.3125 28.9256 33.4874 29.0935 33.7031 29.0935H35.2656C35.4814 29.0935 35.6562 28.9256 35.6562 28.7185V27.2185C35.6562 27.0114 35.4814 26.8435 35.2656 26.8435Z" fill="#00357B"/>
<path d="M28.2344 29.8435H26.6719C26.4561 29.8435 26.2812 30.0114 26.2812 30.2185V31.7185C26.2812 31.9256 26.4561 32.0935 26.6719 32.0935H28.2344C28.4501 32.0935 28.625 31.9256 28.625 31.7185V30.2185C28.625 30.0114 28.4501 29.8435 28.2344 29.8435Z" fill="#00357B"/>
<path d="M28.2344 26.8435H26.6719C26.4561 26.8435 26.2812 27.0114 26.2812 27.2185V28.7185C26.2812 28.9256 26.4561 29.0935 26.6719 29.0935H28.2344C28.4501 29.0935 28.625 28.9256 28.625 28.7185V27.2185C28.625 27.0114 28.4501 26.8435 28.2344 26.8435Z" fill="#00357B"/>
<path d="M28.2344 23.8435H26.6719C26.4561 23.8435 26.2812 24.0114 26.2812 24.2185V25.7185C26.2812 25.9256 26.4561 26.0935 26.6719 26.0935H28.2344C28.4501 26.0935 28.625 25.9256 28.625 25.7185V24.2185C28.625 24.0114 28.4501 23.8435 28.2344 23.8435Z" fill="#00357B"/>
<path d="M24.3281 29.8435H22.7656C22.5499 29.8435 22.375 30.0114 22.375 30.2185V31.7185C22.375 31.9256 22.5499 32.0935 22.7656 32.0935H24.3281C24.5439 32.0935 24.7188 31.9256 24.7188 31.7185V30.2185C24.7188 30.0114 24.5439 29.8435 24.3281 29.8435Z" fill="#00357B"/>
<path d="M24.3281 26.8435H22.7656C22.5499 26.8435 22.375 27.0114 22.375 27.2185V28.7185C22.375 28.9256 22.5499 29.0935 22.7656 29.0935H24.3281C24.5439 29.0935 24.7188 28.9256 24.7188 28.7185V27.2185C24.7188 27.0114 24.5439 26.8435 24.3281 26.8435Z" fill="#00357B"/>
<path d="M24.3281 23.8435H22.7656C22.5499 23.8435 22.375 24.0114 22.375 24.2185V25.7185C22.375 25.9256 22.5499 26.0935 22.7656 26.0935H24.3281C24.5439 26.0935 24.7188 25.9256 24.7188 25.7185V24.2185C24.7188 24.0114 24.5439 23.8435 24.3281 23.8435Z" fill="#00357B"/>
<path d="M17.2969 34.3435H15.7344C15.5186 34.3435 15.3438 34.5114 15.3438 34.7185V36.2185C15.3438 36.4256 15.5186 36.5935 15.7344 36.5935H17.2969C17.5126 36.5935 17.6875 36.4256 17.6875 36.2185V34.7185C17.6875 34.5114 17.5126 34.3435 17.2969 34.3435Z" fill="#00357B"/>
<path d="M17.2969 30.5935H15.7344C15.5186 30.5935 15.3438 30.7614 15.3438 30.9685V32.4685C15.3438 32.6756 15.5186 32.8435 15.7344 32.8435H17.2969C17.5126 32.8435 17.6875 32.6756 17.6875 32.4685V30.9685C17.6875 30.7614 17.5126 30.5935 17.2969 30.5935Z" fill="#00357B"/>
<path d="M17.2969 26.8435H15.7344C15.5186 26.8435 15.3438 27.0114 15.3438 27.2185V28.7185C15.3438 28.9256 15.5186 29.0935 15.7344 29.0935H17.2969C17.5126 29.0935 17.6875 28.9256 17.6875 28.7185V27.2185C17.6875 27.0114 17.5126 26.8435 17.2969 26.8435Z" fill="#00357B"/>
<path d="M5.1875 7.34351C6.48192 7.34351 7.53125 6.33615 7.53125 5.09351C7.53125 3.85087 6.48192 2.84351 5.1875 2.84351C3.89308 2.84351 2.84375 3.85087 2.84375 5.09351C2.84375 6.33615 3.89308 7.34351 5.1875 7.34351Z" fill="#00357B"/>
<path d="M10.6562 7.34351C11.9507 7.34351 13 6.33615 13 5.09351C13 3.85087 11.9507 2.84351 10.6562 2.84351C9.36183 2.84351 8.3125 3.85087 8.3125 5.09351C8.3125 6.33615 9.36183 7.34351 10.6562 7.34351Z" fill="#00357B"/>
<path d="M16.125 7.34351C17.4194 7.34351 18.4688 6.33615 18.4688 5.09351C18.4688 3.85087 17.4194 2.84351 16.125 2.84351C14.8306 2.84351 13.7812 3.85087 13.7812 5.09351C13.7812 6.33615 14.8306 7.34351 16.125 7.34351Z" fill="#00357B"/>
<path d="M43.1633 39.1434L38.7813 38.0649V24.5934C38.78 24.4589 38.7406 24.3273 38.6674 24.2126C38.5942 24.0979 38.4899 24.0045 38.3656 23.9424C39.399 23.186 40.194 22.1697 40.6626 21.0061C41.1311 19.8425 41.2548 18.577 41.0201 17.3501C40.7853 16.1231 40.2012 14.9825 39.3325 14.0547C38.4638 13.1269 37.3444 12.4481 36.0985 12.0937C34.8526 11.7392 33.5287 11.7229 32.2737 12.0465C31.0187 12.3701 29.8816 13.021 28.9883 13.9271C28.0951 14.8332 27.4807 15.959 27.2131 17.1798C26.9456 18.4006 27.0354 19.6686 27.4727 20.8434H20.0313C19.8241 20.8434 19.6253 20.9224 19.4788 21.0631C19.3323 21.2037 19.25 21.3945 19.25 21.5934V23.8434H13C12.7928 23.8434 12.5941 23.9224 12.4476 24.0631C12.3011 24.2037 12.2188 24.3945 12.2188 24.5934V38.8434C12.2188 39.0423 12.3011 39.2331 12.4476 39.3737C12.5941 39.5144 12.7928 39.5934 13 39.5934H36.4242L37.8695 44.3859C37.9122 44.527 37.9971 44.653 38.1138 44.7482C38.2304 44.8434 38.3736 44.9036 38.5256 44.9214C38.6775 44.9391 38.8316 44.9136 38.9686 44.848C39.1056 44.7824 39.2195 44.6796 39.2961 44.5524L40.8125 42.0384L43.382 40.5061C43.5123 40.4286 43.6159 40.316 43.68 40.1824C43.7442 40.0488 43.7659 39.9 43.7426 39.7546C43.7193 39.6092 43.6519 39.4735 43.5489 39.3646C43.4459 39.2557 43.3118 39.1782 43.1633 39.1419V39.1434ZM34.0938 13.3434C35.1754 13.3434 36.2327 13.6513 37.132 14.2282C38.0314 14.8051 38.7323 15.625 39.1462 16.5843C39.5601 17.5436 39.6684 18.5992 39.4574 19.6176C39.2464 20.636 38.7256 21.5715 37.9608 22.3057C37.1959 23.0399 36.2215 23.5399 35.1607 23.7425C34.0998 23.9451 33.0002 23.8411 32.001 23.4438C31.0017 23.0464 30.1476 22.3735 29.5467 21.5101C28.9457 20.6468 28.625 19.6317 28.625 18.5934C28.6267 17.2015 29.2034 15.8671 30.2286 14.8828C31.2538 13.8986 32.6439 13.345 34.0938 13.3434ZM13.7813 25.3434H19.25V38.0934H13.7813V25.3434ZM20.8125 22.3434H28.2516C28.7645 23.0781 29.4222 23.7094 30.1875 24.2019V38.0934H28.625V34.3434C28.625 34.1445 28.5427 33.9537 28.3962 33.8131C28.2497 33.6724 28.051 33.5934 27.8438 33.5934H23.1563C22.9491 33.5934 22.7503 33.6724 22.6038 33.8131C22.4573 33.9537 22.375 34.1445 22.375 34.3434V38.0934H20.8125V22.3434ZM31.75 25.3434H37.2188V37.6809L37.0625 37.6419C36.9291 37.6091 36.789 37.6108 36.6565 37.6468C36.5239 37.6827 36.4037 37.7517 36.3078 37.8466C36.2391 37.9181 36.186 38.002 36.1516 38.0934H31.75V25.3434Z" fill="#00357B"/>
<path d="M32.5307 22.3437C32.7379 22.3436 32.9366 22.2646 33.0831 22.1239L38.5518 16.8739C38.6942 16.7325 38.7729 16.543 38.7711 16.3464C38.7693 16.1497 38.6872 15.9616 38.5423 15.8225C38.3975 15.6835 38.2015 15.6046 37.9967 15.6029C37.7918 15.6012 37.5945 15.6768 37.4472 15.8134L32.5307 20.5332L30.7393 18.8134C30.592 18.6768 30.3946 18.6012 30.1898 18.6029C29.985 18.6046 29.789 18.6835 29.6442 18.8225C29.4993 18.9616 29.4172 19.1497 29.4154 19.3464C29.4136 19.543 29.4923 19.7325 29.6347 19.8739L31.9784 22.1239C32.1249 22.2646 32.3236 22.3436 32.5307 22.3437Z" fill="#00357B"/>
<path d="M49.7188 0.593506H1.28125C1.07405 0.593506 0.875336 0.672523 0.728823 0.813176C0.58231 0.953828 0.5 1.14459 0.5 1.34351L0.5 47.8435C0.5 48.0424 0.58231 48.2332 0.728823 48.3738C0.875336 48.5145 1.07405 48.5935 1.28125 48.5935H49.7188C49.9259 48.5935 50.1247 48.5145 50.2712 48.3738C50.4177 48.2332 50.5 48.0424 50.5 47.8435V1.34351C50.5 1.14459 50.4177 0.953828 50.2712 0.813176C50.1247 0.672523 49.9259 0.593506 49.7188 0.593506ZM48.9375 2.09351V8.09351H2.0625V2.09351H48.9375ZM2.0625 47.0935V9.59351H48.9375V47.0935H2.0625Z" fill="#00357B"/>
</svg>
