<svg width="182" height="79" viewBox="0 0 182 79" fill="none" xmlns="http://www.w3.org/2000/svg">
<g clip-path="url(#clip0_256_35)">
<path d="M86.0036 75.9259C85.9864 75.7885 86.0208 75.7026 85.8834 75.6511C85.7117 75.5824 85.4713 75.548 85.2824 75.548C84.5441 75.548 83.823 76.0976 83.823 76.8876C83.823 77.2654 83.9775 77.5746 84.2694 77.815C84.527 78.0554 84.8532 78.1413 85.1966 78.1413C85.4713 78.1413 85.7804 78.0726 86.0207 77.918C86.1066 77.8493 86.0894 77.815 86.0894 77.7119V77.2482C86.0894 77.1967 86.0723 77.0765 86.1238 77.025C86.1581 77.0078 86.2096 77.0078 86.244 76.9906H86.3126C86.347 76.9906 86.3813 76.9906 86.3813 76.9391C86.3813 76.9048 86.347 76.8876 86.3298 76.8876C86.1924 76.8876 86.0551 76.9048 85.9349 76.9048C85.7975 76.9048 85.6602 76.8876 85.5228 76.8876C85.4885 76.8876 85.4198 76.8876 85.4198 76.9391C85.4198 76.9906 85.4885 76.9906 85.5228 76.9906C85.746 76.9906 85.7804 77.025 85.7804 77.2482V77.5746C85.7804 77.6776 85.7804 77.8493 85.7117 77.918C85.5915 78.0039 85.4026 78.0211 85.2653 78.0211C84.9391 78.0211 84.6643 77.9352 84.4411 77.6776C84.2523 77.4372 84.1664 77.1624 84.1664 76.8532C84.1664 76.5785 84.2694 76.235 84.4411 76.0117C84.6472 75.7541 84.9047 75.6511 85.2138 75.6511C85.8834 75.6511 85.8147 76.1663 85.9521 76.1663C85.9864 76.1663 86.0036 76.1319 86.0036 76.0976V75.9259Z" fill="#004572"/>
<path d="M87.1368 75.9259C87.1368 75.8572 87.1368 75.7713 87.2054 75.7369C87.257 75.7198 87.4287 75.7198 87.4973 75.7198C87.6175 75.7198 87.7892 75.7198 87.9094 75.7541C88.0468 75.7885 88.0983 75.8572 88.1498 75.9945L88.2013 76.0976C88.2185 76.1319 88.2356 76.1835 88.27 76.1835C88.3043 76.1835 88.3043 76.1148 88.3043 76.0976V75.7541C88.3043 75.7026 88.3215 75.5995 88.2528 75.5995C87.9266 75.5995 87.6004 75.6167 87.2741 75.6167C87.0338 75.6167 86.7934 75.5995 86.553 75.5995C86.5187 75.5995 86.4843 75.6339 86.4843 75.6682C86.4843 75.7198 86.553 75.7198 86.5873 75.7198C86.8621 75.7198 86.8449 75.7885 86.8449 76.0461V77.6604C86.8449 77.918 86.8621 77.9867 86.5873 77.9867C86.553 77.9867 86.4843 78.0039 86.4843 78.0382C86.4843 78.0898 86.5187 78.1069 86.553 78.1069C86.6388 78.1069 86.7247 78.0898 86.7934 78.0898H88.2871C88.3215 78.0898 88.3215 78.0898 88.3387 78.0554L88.3902 77.6432C88.3902 77.6089 88.4073 77.5746 88.4073 77.5402C88.4073 77.523 88.3902 77.5059 88.373 77.5059C88.3215 77.5059 88.2871 77.6089 88.2871 77.6432C88.1498 77.9867 87.9437 77.9867 87.6175 77.9867C87.3085 77.9867 87.1368 77.9867 87.1368 77.6261V76.9391C87.1368 76.8017 87.1711 76.8017 87.3256 76.8017C87.4458 76.8017 87.6519 76.8017 87.7892 76.8361C87.8751 76.8532 87.9094 76.9735 87.9266 77.0937C87.9266 77.1109 87.9438 77.1452 87.9781 77.1452C87.9953 77.1452 88.0124 77.1452 88.0124 77.0765C88.0124 76.9563 88.0124 76.8361 87.9953 76.7158C88.0124 76.5956 88.0124 76.4754 88.0124 76.3724C88.0124 76.338 87.9953 76.3208 87.9781 76.3208C87.9438 76.3208 87.9266 76.3724 87.9266 76.3895C87.9094 76.5098 87.8922 76.6643 87.7892 76.6643C87.6519 76.6815 87.4458 76.6815 87.3256 76.6815C87.1711 76.6815 87.1368 76.6815 87.1368 76.4926V75.9259Z" fill="#004572"/>
<path d="M92.2362 75.9259C92.2362 75.8572 92.2362 75.7713 92.3049 75.7369C92.3736 75.7198 92.5281 75.7198 92.5968 75.7198C92.7341 75.7198 92.8887 75.7198 93.0088 75.7541C93.1462 75.7885 93.1977 75.8572 93.2492 75.9945L93.3179 76.0976C93.3179 76.1319 93.3351 76.1835 93.3694 76.1835C93.4038 76.1835 93.4038 76.1148 93.4038 76.0976V75.7541C93.4038 75.7026 93.4209 75.5995 93.3522 75.5995C93.026 75.5995 92.6998 75.6167 92.3736 75.6167C92.1332 75.6167 91.8928 75.5995 91.6524 75.5995C91.6181 75.5995 91.6009 75.6339 91.6009 75.6682C91.6009 75.7198 91.6524 75.7198 91.6868 75.7198C91.9615 75.7198 91.9443 75.7885 91.9443 76.0461V77.6604C91.9443 77.918 91.9615 77.9867 91.6868 77.9867C91.6524 77.9867 91.6009 78.0039 91.6009 78.0382C91.6009 78.0898 91.6181 78.1069 91.6524 78.1069C91.7383 78.1069 91.8241 78.0898 91.8928 78.0898H93.3866C93.4209 78.0898 93.4209 78.0898 93.4381 78.0554L93.4896 77.6432C93.5068 77.6089 93.5068 77.5746 93.5068 77.5402C93.5068 77.523 93.4896 77.5059 93.4724 77.5059C93.4209 77.5059 93.3866 77.6089 93.3866 77.6432C93.2492 77.9867 93.0432 77.9867 92.717 77.9867C92.4079 77.9867 92.2362 77.9867 92.2362 77.6261V76.9391C92.2362 76.8017 92.2877 76.8017 92.4422 76.8017C92.5453 76.8017 92.7513 76.8017 92.9058 76.8361C92.9745 76.8532 93.0088 76.9735 93.026 77.0937C93.0432 77.1109 93.0432 77.1452 93.0775 77.1452C93.0947 77.1452 93.129 77.1452 93.129 77.0765C93.1119 76.9563 93.1119 76.8361 93.1119 76.7158C93.1119 76.5956 93.1119 76.4754 93.129 76.3724C93.129 76.338 93.0947 76.3208 93.0775 76.3208C93.0432 76.3208 93.0432 76.3724 93.026 76.3895C93.0088 76.5098 92.9917 76.6643 92.9058 76.6643C92.7513 76.6815 92.5453 76.6815 92.4422 76.6815C92.2705 76.6815 92.2362 76.6815 92.2362 76.4926V75.9259Z" fill="#004572"/>
<path d="M95.0864 77.6261L94.3996 75.943C94.3824 75.8915 94.3481 75.84 94.3481 75.7713C94.3481 75.7026 94.5198 75.7198 94.537 75.7026C94.5713 75.7026 94.6228 75.7026 94.6228 75.6511C94.6228 75.5995 94.5885 75.5995 94.5541 75.5995C94.434 75.5995 94.3138 75.6167 94.1936 75.6167C94.0562 75.6167 93.936 75.5995 93.7987 75.5995C93.7643 75.5995 93.7128 75.6167 93.7128 75.6511C93.7128 75.7198 93.7815 75.7198 93.8158 75.7198C93.9875 75.7198 94.0391 75.84 94.0906 75.9774L94.9147 78.0211C94.9319 78.0382 94.9491 78.1413 94.9834 78.1413C95.0177 78.1413 95.0349 78.0382 95.0521 78.0211L95.8247 76.0289C95.8591 75.943 95.9106 75.8228 95.9792 75.7713C96.0136 75.7198 96.0823 75.7198 96.1338 75.7198C96.1681 75.7198 96.2196 75.7026 96.2196 75.6511C96.2196 75.6167 96.2024 75.5995 96.1681 75.5995C96.0651 75.5995 95.9621 75.6167 95.8419 75.6167C95.7389 75.6167 95.6358 75.5995 95.5157 75.5995C95.4813 75.5995 95.4298 75.6167 95.4298 75.6682C95.4298 75.7198 95.5672 75.7198 95.6015 75.7198C95.6702 75.7198 95.7732 75.7369 95.7732 75.8228C95.7732 75.8915 95.7389 75.9774 95.7045 76.0289L95.0864 77.6261Z" fill="#004572"/>
<path d="M96.9236 75.9259C96.9236 75.8572 96.9064 75.7713 96.9751 75.7369C97.0438 75.7198 97.2155 75.7198 97.267 75.7198C97.4043 75.7198 97.5589 75.7198 97.6962 75.7541C97.8164 75.7885 97.8679 75.8572 97.9194 75.9945L97.9881 76.0976C97.9881 76.1319 98.0053 76.1835 98.0396 76.1835C98.0739 76.1835 98.0739 76.1148 98.0739 76.0976V75.7541C98.0739 75.7026 98.0911 75.5995 98.0224 75.5995C97.6962 75.5995 97.37 75.6167 97.0438 75.6167C96.8206 75.6167 96.563 75.5995 96.3398 75.5995C96.3055 75.5995 96.2711 75.6339 96.2711 75.6682C96.2711 75.7198 96.3226 75.7198 96.3741 75.7198C96.6317 75.7198 96.6145 75.7885 96.6145 76.0461V77.6604C96.6145 77.918 96.6317 77.9867 96.3741 77.9867C96.3226 77.9867 96.2711 78.0039 96.2711 78.0382C96.2711 78.0898 96.3055 78.1069 96.3398 78.1069C96.4085 78.1069 96.4943 78.0898 96.563 78.0898H98.0568C98.0911 78.0898 98.1083 78.0898 98.1083 78.0554L98.1598 77.6432C98.177 77.6089 98.177 77.5746 98.177 77.5402C98.177 77.523 98.1598 77.5059 98.1426 77.5059C98.0911 77.5059 98.0739 77.6089 98.0568 77.6432C97.9194 77.9867 97.7134 77.9867 97.3872 77.9867C97.0781 77.9867 96.9236 77.9867 96.9236 77.6261V76.9391C96.9236 76.8017 96.9579 76.8017 97.1124 76.8017C97.2155 76.8017 97.4215 76.8017 97.576 76.8361C97.6619 76.8532 97.679 76.9735 97.6962 77.0937C97.7134 77.1109 97.7134 77.1452 97.7477 77.1452C97.7649 77.1452 97.7992 77.1452 97.7992 77.0765C97.7992 76.9563 97.7821 76.8361 97.7821 76.7158C97.7821 76.5956 97.7992 76.4754 97.7992 76.3724C97.7992 76.338 97.7649 76.3208 97.7477 76.3208C97.7134 76.3208 97.7134 76.3724 97.6962 76.3895C97.679 76.5098 97.6619 76.6643 97.576 76.6643C97.4215 76.6815 97.2155 76.6815 97.1124 76.6815C96.9579 76.6815 96.9236 76.6815 96.9236 76.4926V75.9259Z" fill="#004572"/>
<path d="M90.8798 77.5746L89.4375 75.7542C89.386 75.6855 89.3517 75.6339 89.2658 75.6168H88.7679C88.7336 75.6168 88.6821 75.6168 88.6821 75.6683C88.6821 75.7198 88.7336 75.7198 88.7679 75.7198C89.0598 75.7198 89.0426 75.8057 89.0426 76.0461V77.6776C89.0426 77.9181 89.0598 78.0039 88.7679 78.0039C88.7336 78.0039 88.6649 77.9868 88.6649 78.0383C88.6649 78.0898 88.6992 78.107 88.7507 78.107C88.8538 78.107 88.9739 78.0898 89.0941 78.0898C89.2143 78.0898 89.3345 78.107 89.4547 78.107C89.489 78.107 89.5234 78.0898 89.5234 78.0383C89.5234 77.9868 89.4547 78.0039 89.4204 78.0039C89.1285 78.0039 89.1628 77.9181 89.1628 77.6776V75.8744L90.8626 78.0383C90.8798 78.0726 90.9141 78.1413 90.9656 78.1413C91 78.1413 90.9828 78.0898 90.9828 78.0726V76.0461C90.9828 75.8057 90.9656 75.7198 91.2575 75.7198C91.2919 75.7198 91.3605 75.7198 91.3605 75.6683C91.3605 75.6339 91.3262 75.6168 91.2919 75.6168C91.1717 75.6168 91.0515 75.6339 90.9313 75.6339C90.8111 75.6339 90.7081 75.6168 90.5879 75.6168C90.5364 75.6168 90.5021 75.6339 90.5021 75.6683C90.5021 75.7198 90.5707 75.7198 90.6051 75.7198C90.897 75.7198 90.8798 75.8057 90.8798 76.0461V77.5746Z" fill="#004572"/>
<path d="M74.2766 67.442C74.2422 67.0985 74.3624 66.8924 74.0019 66.755C73.5039 66.5489 72.8687 66.4459 72.3364 66.4459C70.3619 66.4459 68.4217 67.94 68.4217 70.0867C68.4217 71.1172 68.8509 71.9587 69.6236 72.6113C70.3447 73.2296 71.2032 73.4528 72.1304 73.4528C72.8858 73.4528 73.6928 73.2983 74.3281 72.8689C74.5685 72.6972 74.517 72.5769 74.517 72.3022V71.0656C74.517 70.9111 74.4998 70.602 74.6372 70.4817C74.7058 70.3959 74.8604 70.3959 74.9634 70.3959L75.1522 70.3615C75.2381 70.3615 75.3411 70.3615 75.3411 70.2241C75.3411 70.1211 75.2553 70.1039 75.1694 70.1039H72.9888C72.903 70.1039 72.7485 70.1039 72.7485 70.2413C72.7485 70.3787 72.903 70.3615 73.006 70.3615C73.607 70.3615 73.71 70.4646 73.71 71.0656V71.9587C73.71 72.2163 73.7272 72.68 73.5039 72.8689C73.2292 73.1093 72.6798 73.1609 72.3364 73.1609C71.4436 73.1609 70.6881 72.9204 70.1043 72.1991C69.5721 71.5809 69.366 70.8252 69.366 70.018C69.366 69.2452 69.6236 68.3178 70.1043 67.7167C70.6366 67.0298 71.3577 66.7722 72.1819 66.7722C74.0019 66.7722 73.813 68.1461 74.1564 68.1461C74.2766 68.1461 74.3109 68.043 74.3109 67.94L74.2766 67.442Z" fill="#004572"/>
<path d="M76.5087 72.1991C76.5087 72.8861 76.5602 73.0922 75.839 73.0922C75.736 73.0922 75.5643 73.0922 75.5643 73.2296C75.5643 73.3498 75.6502 73.367 75.7532 73.367C76.1309 73.367 76.5258 73.3154 76.9207 73.3154C77.3157 73.3154 77.6934 73.367 78.0883 73.367C78.1741 73.367 78.26 73.3498 78.26 73.2296C78.26 73.0922 78.0883 73.0922 77.9853 73.0922C77.2813 73.0922 77.3157 72.8861 77.3157 72.1991V70.5504C77.3157 70.4474 77.3157 70.1898 77.3672 70.1211C77.4187 70.0524 77.5217 70.0696 77.5904 70.0696C78.3802 70.0696 78.363 70.1554 78.7407 70.9111L79.7538 73.0063C79.8396 73.1609 79.8911 73.367 80.1143 73.367H81.196C81.2819 73.367 81.3849 73.3498 81.3849 73.2467C81.3849 73.0922 81.196 73.0922 81.1102 73.0922C80.6638 73.0922 80.5092 72.6972 80.3204 72.3194L79.4791 70.6363C79.3417 70.3615 79.1872 69.9837 78.8609 69.9322C79.7194 69.812 80.4921 69.2452 80.4921 68.2663C80.4921 67.1328 79.5134 66.6176 78.5347 66.6176C77.9509 66.6176 77.3672 66.6691 76.7662 66.6691C76.44 66.6691 76.0966 66.6176 75.7532 66.6176C75.6502 66.6176 75.5643 66.6691 75.5643 66.7894C75.5643 66.9096 75.736 66.9096 75.839 66.9096C76.5602 66.9096 76.5087 67.1157 76.5087 67.8026V72.1991ZM77.3157 67.7167C77.3157 66.9611 77.3328 66.858 78.1226 66.858C79.0326 66.858 79.6164 67.3904 79.6164 68.3865C79.6164 68.8159 79.4791 69.2109 79.1357 69.4685C78.7407 69.7776 78.3115 69.8291 77.8479 69.8291C77.6762 69.8291 77.3157 69.8978 77.3157 69.6402V67.7167Z" fill="#004572"/>
<path d="M76.5087 72.1991C76.5087 72.8861 76.5602 73.0922 75.839 73.0922C75.736 73.0922 75.5643 73.0922 75.5643 73.2296C75.5643 73.3498 75.6502 73.367 75.7532 73.367C76.1309 73.367 76.5258 73.3154 76.9207 73.3154C77.3157 73.3154 77.6934 73.367 78.0883 73.367C78.1741 73.367 78.26 73.3498 78.26 73.2296C78.26 73.0922 78.0883 73.0922 77.9853 73.0922C77.2813 73.0922 77.3157 72.8861 77.3157 72.1991V70.5504C77.3157 70.4474 77.3157 70.1898 77.3672 70.1211C77.4187 70.0524 77.5217 70.0696 77.5904 70.0696C78.3802 70.0696 78.363 70.1554 78.7407 70.9111L79.7538 73.0063C79.8396 73.1609 79.8911 73.367 80.1143 73.367H81.196C81.2819 73.367 81.3849 73.3498 81.3849 73.2467C81.3849 73.0922 81.196 73.0922 81.1102 73.0922C80.6638 73.0922 80.5092 72.6972 80.3204 72.3194L79.4791 70.6363C79.3417 70.3615 79.1872 69.9837 78.8609 69.9322C79.7194 69.812 80.4921 69.2452 80.4921 68.2663C80.4921 67.1328 79.5134 66.6176 78.5347 66.6176C77.9509 66.6176 77.3672 66.6691 76.7662 66.6691C76.44 66.6691 76.0966 66.6176 75.7532 66.6176C75.6502 66.6176 75.5643 66.6691 75.5643 66.7894C75.5643 66.9096 75.736 66.9096 75.839 66.9096C76.5602 66.9096 76.5087 67.1157 76.5087 67.8026V72.1991ZM77.3157 67.7167C77.3157 66.9611 77.3328 66.858 78.1226 66.858C79.0326 66.858 79.6164 67.3904 79.6164 68.3865C79.6164 68.8159 79.4791 69.2109 79.1357 69.4685C78.7407 69.7776 78.3115 69.8291 77.8479 69.8291C77.6762 69.8291 77.3157 69.8978 77.3157 69.6402V67.7167Z" fill="#004572"/>
<path d="M83.0332 72.1991C83.0332 72.8861 83.0847 73.0922 82.3636 73.0922C82.2605 73.0922 82.106 73.0922 82.106 73.2296C82.106 73.3498 82.1747 73.367 82.2777 73.367H84.6128C84.6987 73.367 84.7845 73.3498 84.7845 73.2296C84.7845 73.0922 84.6128 73.0922 84.5098 73.0922C83.8058 73.0922 83.8402 72.8861 83.8402 72.1991V67.8026C83.8402 67.1157 83.7887 66.9096 84.5098 66.9096C84.6128 66.9096 84.7845 66.9096 84.7845 66.7722C84.7845 66.652 84.6987 66.6176 84.6128 66.6176H82.2777C82.1747 66.6176 82.106 66.652 82.106 66.7722C82.106 66.9096 82.2605 66.9096 82.3636 66.9096C83.0847 66.9096 83.0332 67.1157 83.0332 67.8026V72.1991Z" fill="#004572"/>
<path d="M87.2226 70.2413C87.9266 70.5676 88.4932 70.997 88.4932 71.8556C88.4932 72.6972 87.7206 73.2467 86.9479 73.2467C86.0036 73.2467 85.54 72.6628 85.437 71.7354C85.4198 71.6496 85.4198 71.392 85.2824 71.392C85.1794 71.392 85.1451 71.5122 85.1279 71.598C85.0936 71.89 85.1279 72.1819 85.1279 72.4567C85.1279 72.6628 85.0764 72.9204 85.2481 73.0406C85.6774 73.2983 86.2955 73.4528 86.8106 73.4528C87.3943 73.4528 87.9953 73.2983 88.4589 72.8861C88.9053 72.5083 89.18 71.9759 89.18 71.3748C89.18 70.9111 88.974 70.4302 88.6821 70.0867C88.4417 69.812 87.9953 69.5887 87.6519 69.4169C86.9823 69.125 85.849 68.7472 85.849 67.8198C85.849 67.0298 86.5015 66.6691 87.1883 66.6691C87.9953 66.6691 88.3043 67.0641 88.5275 67.8026C88.5619 67.8885 88.579 68.0602 88.6992 68.0602C88.7679 68.0602 88.8023 68.0087 88.8023 67.9228C88.8023 67.648 88.8194 67.3904 88.8194 67.0985C88.8023 66.9096 88.7679 66.7722 88.579 66.6863C88.2013 66.5317 87.6004 66.4459 87.1883 66.4459C86.1753 66.4459 85.1966 67.15 85.1966 68.2663C85.1966 69.228 85.9521 69.6746 86.7075 70.018L87.2226 70.2413Z" fill="#004572"/>
<path d="M89.6436 69.9493C89.6436 71.9072 91.3777 73.4528 93.2492 73.4528C95.2066 73.4528 96.8377 72.0274 96.8377 69.9493C96.8377 67.8713 95.2066 66.4459 93.2492 66.4459C91.3777 66.4459 89.6436 67.9915 89.6436 69.9493ZM95.8934 69.9493C95.8934 70.7565 95.7389 71.4778 95.2581 72.1133C94.7602 72.7487 94.0562 73.1437 93.2664 73.1437C92.4766 73.1437 91.7555 72.8174 91.2575 72.1991C90.7596 71.5637 90.5707 70.7565 90.5707 69.9493C90.5707 69.1765 90.7424 68.3693 91.2232 67.7511C91.7211 67.0985 92.4594 66.7378 93.2664 66.7378C94.039 66.7378 94.7258 67.1156 95.2066 67.7167C95.7389 68.3865 95.8934 69.125 95.8934 69.9493Z" fill="#004572"/>
<path d="M89.6436 69.9493C89.6436 71.9072 91.3777 73.4528 93.2492 73.4528C95.2066 73.4528 96.8377 72.0274 96.8377 69.9493C96.8377 67.8713 95.2066 66.4459 93.2492 66.4459C91.3777 66.4459 89.6436 67.9915 89.6436 69.9493ZM95.8934 69.9493C95.8934 70.7565 95.7389 71.4778 95.2581 72.1133C94.7602 72.7487 94.0562 73.1437 93.2664 73.1437C92.4766 73.1437 91.7555 72.8174 91.2575 72.1991C90.7596 71.5637 90.5707 70.7565 90.5707 69.9493C90.5707 69.1765 90.7424 68.3693 91.2232 67.7511C91.7211 67.0985 92.4594 66.7378 93.2664 66.7378C94.039 66.7378 94.7258 67.1156 95.2066 67.7167C95.7389 68.3865 95.8934 69.125 95.8934 69.9493Z" fill="#004572"/>
<path d="M103.053 67.4763C103.019 67.1328 103.088 66.8924 102.727 66.755C102.246 66.5489 101.594 66.4459 101.079 66.4459C99.087 66.4459 97.1468 67.94 97.1468 70.0867C97.1468 71.1172 97.576 71.9587 98.3487 72.6113C99.0698 73.2296 99.9283 73.4528 100.855 73.4528C101.611 73.4528 102.418 73.2983 103.07 72.8689C103.294 72.6972 103.259 72.5769 103.259 72.3022V71.0656C103.259 70.9111 103.225 70.602 103.362 70.4817C103.431 70.3959 103.585 70.3959 103.688 70.3959L103.877 70.3615C103.98 70.3615 104.083 70.3615 104.083 70.2241C104.083 70.1211 103.98 70.1039 103.895 70.1039H101.714C101.628 70.1039 101.491 70.1039 101.491 70.2413C101.491 70.3787 101.628 70.3615 101.731 70.3615C102.332 70.3615 102.435 70.4646 102.435 71.0656V71.9587C102.435 72.2163 102.452 72.68 102.246 72.8689C101.954 73.1093 101.405 73.1609 101.062 73.1609C100.169 73.1609 99.4132 72.9204 98.8294 72.1991C98.2972 71.5809 98.0911 70.8252 98.0911 70.018C98.0911 69.2452 98.3487 68.3178 98.8294 67.7167C99.3617 67.0298 100.083 66.7722 100.907 66.7722C102.727 66.7722 102.538 68.1461 102.882 68.1461C103.002 68.1461 103.036 68.043 103.036 67.94L103.053 67.4763Z" fill="#004572"/>
<path d="M104.427 69.9493C104.427 71.9072 106.161 73.4528 108.032 73.4528C109.99 73.4528 111.621 72.0274 111.621 69.9493C111.621 67.8713 109.99 66.4459 108.032 66.4459C106.161 66.4459 104.427 67.9915 104.427 69.9493ZM110.677 69.9493C110.677 70.7565 110.522 71.4778 110.041 72.1133C109.543 72.7487 108.839 73.1437 108.05 73.1437C107.26 73.1437 106.539 72.8174 106.041 72.1991C105.543 71.5637 105.354 70.7565 105.354 69.9493C105.354 69.1765 105.526 68.3693 106.006 67.7511C106.504 67.0985 107.243 66.7378 108.05 66.7378C108.822 66.7378 109.509 67.1156 110.007 67.7167C110.522 68.3865 110.677 69.125 110.677 69.9493Z" fill="#004572"/>
<path d="M104.427 69.9493C104.427 71.9072 106.161 73.4528 108.032 73.4528C109.99 73.4528 111.621 72.0274 111.621 69.9493C111.621 67.8713 109.99 66.4459 108.032 66.4459C106.161 66.4459 104.427 67.9915 104.427 69.9493ZM110.677 69.9493C110.677 70.7565 110.522 71.4778 110.041 72.1133C109.543 72.7487 108.839 73.1437 108.05 73.1437C107.26 73.1437 106.539 72.8174 106.041 72.1991C105.543 71.5637 105.354 70.7565 105.354 69.9493C105.354 69.1765 105.526 68.3693 106.006 67.7511C106.504 67.0985 107.243 66.7378 108.05 66.7378C108.822 66.7378 109.509 67.1156 110.007 67.7167C110.522 68.3865 110.677 69.125 110.677 69.9493Z" fill="#004572"/>
<path d="M117.201 71.9415L113.544 66.9954C113.424 66.8237 113.338 66.6863 113.132 66.6176H111.844C111.741 66.6176 111.604 66.6348 111.604 66.8065C111.604 66.9096 111.758 66.9096 111.861 66.9096C112.582 66.9096 112.531 67.1328 112.531 67.8026V72.1991C112.531 72.8689 112.582 73.0922 111.861 73.0922C111.758 73.0922 111.587 73.0578 111.587 73.2124C111.587 73.3154 111.672 73.367 111.775 73.367H113.578C113.681 73.367 113.75 73.3154 113.75 73.2124C113.75 73.0578 113.595 73.0922 113.492 73.0922C112.771 73.0922 112.823 72.8689 112.823 72.1991V67.3389L117.167 73.2124C117.218 73.2983 117.304 73.47 117.424 73.47C117.51 73.47 117.493 73.3154 117.493 73.2639V67.8026C117.493 67.15 117.459 66.9096 118.163 66.9096C118.266 66.9096 118.437 66.9096 118.437 66.8065C118.437 66.6863 118.351 66.6176 118.266 66.6176H116.446C116.343 66.6176 116.274 66.6863 116.274 66.8065C116.274 66.9096 116.428 66.9096 116.532 66.9096C117.253 66.9096 117.201 67.1328 117.201 67.8026V71.9415Z" fill="#004572"/>
<path d="M118.06 69.9493C118.06 71.9072 119.811 73.4528 121.665 73.4528C123.64 73.4528 125.271 72.0274 125.271 69.9493C125.271 67.8713 123.64 66.4459 121.665 66.4459C119.811 66.4459 118.06 67.9915 118.06 69.9493ZM124.327 69.9493C124.327 70.7565 124.172 71.4778 123.691 72.1133C123.193 72.7487 122.489 73.1437 121.682 73.1437C120.91 73.1437 120.189 72.8174 119.691 72.1991C119.176 71.5637 119.004 70.7565 119.004 69.9493C119.004 69.1765 119.176 68.3693 119.639 67.7511C120.137 67.0985 120.893 66.7378 121.682 66.7378C122.472 66.7378 123.142 67.1156 123.64 67.7167C124.155 68.3865 124.327 69.125 124.327 69.9493Z" fill="#004572"/>
<path d="M118.06 69.9493C118.06 71.9072 119.811 73.4528 121.665 73.4528C123.64 73.4528 125.271 72.0274 125.271 69.9493C125.271 67.8713 123.64 66.4459 121.665 66.4459C119.811 66.4459 118.06 67.9915 118.06 69.9493ZM124.327 69.9493C124.327 70.7565 124.172 71.4778 123.691 72.1133C123.193 72.7487 122.489 73.1437 121.682 73.1437C120.91 73.1437 120.189 72.8174 119.691 72.1991C119.176 71.5637 119.004 70.7565 119.004 69.9493C119.004 69.1765 119.176 68.3693 119.639 67.7511C120.137 67.0985 120.893 66.7378 121.682 66.7378C122.472 66.7378 123.142 67.1156 123.64 67.7167C124.155 68.3865 124.327 69.125 124.327 69.9493Z" fill="#004572"/>
<path d="M65.8805 70.705C65.9836 70.705 66.0007 70.6192 66.0007 70.5333C66.0007 70.1898 65.8634 69.7605 65.6573 69.5029C65.3139 69.0735 64.7817 68.8674 64.2494 68.8674C63.597 68.8674 62.9788 69.1079 62.4981 69.5544C61.983 70.0181 61.7941 70.5677 61.7941 71.2546C61.7941 72.5255 62.7385 73.5903 64.0262 73.5903C64.6271 73.5903 65.1079 73.4357 65.5715 73.0235C65.623 72.9548 65.9492 72.68 65.9492 72.5598C65.9492 72.5255 65.9149 72.4911 65.8634 72.4911C65.7432 72.4911 65.3826 73.1437 64.4211 73.1437C63.2364 73.1437 62.5324 72.1648 62.5324 71.0142C62.5324 70.6879 62.6183 70.705 62.9273 70.705H65.8805ZM62.9273 70.4646C62.8243 70.4646 62.6011 70.4818 62.6011 70.3272C62.6011 70.1727 62.7556 69.8463 62.8415 69.7433C63.1334 69.314 63.6141 69.0563 64.1121 69.0563C64.4383 69.0563 64.7473 69.1422 64.9705 69.3655C65.1079 69.52 65.2281 69.7605 65.2281 69.9666C65.2281 70.2242 65.0736 70.3272 64.8675 70.3787C64.5756 70.4474 64.0262 70.4646 63.7343 70.4646H62.9273Z" fill="#004572"/>
<path d="M65.8805 70.705C65.9836 70.705 66.0007 70.6192 66.0007 70.5333C66.0007 70.1898 65.8634 69.7605 65.6573 69.5029C65.3139 69.0735 64.7817 68.8674 64.2494 68.8674C63.597 68.8674 62.9788 69.1079 62.4981 69.5544C61.983 70.0181 61.7941 70.5677 61.7941 71.2546C61.7941 72.5255 62.7385 73.5903 64.0262 73.5903C64.6271 73.5903 65.1079 73.4357 65.5715 73.0235C65.623 72.9548 65.9492 72.68 65.9492 72.5598C65.9492 72.5255 65.9149 72.4911 65.8634 72.4911C65.7432 72.4911 65.3826 73.1437 64.4211 73.1437C63.2364 73.1437 62.5324 72.1648 62.5324 71.0142C62.5324 70.6879 62.6183 70.705 62.9273 70.705H65.8805ZM62.9273 70.4646C62.8243 70.4646 62.6011 70.4818 62.6011 70.3272C62.6011 70.1727 62.7556 69.8463 62.8415 69.7433C63.1334 69.314 63.6141 69.0563 64.1121 69.0563C64.4383 69.0563 64.7473 69.1422 64.9705 69.3655C65.1079 69.52 65.2281 69.7605 65.2281 69.9666C65.2281 70.2242 65.0736 70.3272 64.8675 70.3787C64.5756 70.4474 64.0262 70.4646 63.7343 70.4646H62.9273Z" fill="#004572"/>
<path d="M60.4034 72.1648C60.4034 72.3709 60.4205 72.5083 60.3004 72.68C60.0256 73.0063 59.5449 73.1609 59.15 73.1609C58.0683 73.1609 57.4502 72.1133 57.4502 71.0828C57.4502 70.0696 58.0854 69.1594 59.15 69.0563C59.4762 69.022 59.9226 69.1422 60.163 69.3826C60.4205 69.6231 60.4034 70.0181 60.4034 70.3272V72.1648ZM61.0558 66.6176C61.0558 66.5489 61.0558 66.5317 60.97 66.5317C60.9013 66.5317 60.0085 66.4802 59.7338 66.5317C59.6822 66.5317 59.6479 66.6176 59.6479 66.6863C59.6479 66.8237 59.7509 66.8752 59.8368 66.8581C60.5236 66.7894 60.4034 67.4248 60.4034 67.8026V68.7644C60.4034 68.8331 60.4377 69.1422 60.3175 69.1422C60.266 69.1422 60.1802 69.1078 60.1287 69.0907C59.8196 68.9533 59.459 68.9017 59.0985 68.8674C58.4632 68.8502 57.8622 69.1765 57.4158 69.6059C56.9866 70.0352 56.729 70.602 56.729 71.2374C56.729 72.4567 57.6047 73.5902 58.8409 73.5902C59.6307 73.5902 60.266 73.1094 60.3519 72.9033C60.3862 72.8174 60.4034 73.2124 60.4034 73.2467C60.4034 73.3154 60.4549 73.5215 60.5579 73.5215C60.6094 73.5215 61.7083 73.5559 61.7598 73.5215C61.7598 73.5215 61.8456 73.4185 61.8628 73.2811C61.8628 73.2811 61.7254 73.1437 61.6568 73.1437H61.2275C61.0387 73.1437 61.073 72.6285 61.073 72.5254L61.0558 66.6176Z" fill="#004572"/>
<path d="M60.4034 72.1648C60.4034 72.3709 60.4205 72.5083 60.3004 72.68C60.0256 73.0063 59.5449 73.1609 59.15 73.1609C58.0683 73.1609 57.4502 72.1133 57.4502 71.0828C57.4502 70.0696 58.0854 69.1594 59.15 69.0563C59.4762 69.022 59.9226 69.1422 60.163 69.3826C60.4205 69.6231 60.4034 70.0181 60.4034 70.3272V72.1648ZM61.0558 66.6176C61.0558 66.5489 61.0558 66.5317 60.97 66.5317C60.9013 66.5317 60.0085 66.4802 59.7338 66.5317C59.6822 66.5317 59.6479 66.6176 59.6479 66.6863C59.6479 66.8237 59.7509 66.8752 59.8368 66.8581C60.5236 66.7894 60.4034 67.4248 60.4034 67.8026V68.7644C60.4034 68.8331 60.4377 69.1422 60.3175 69.1422C60.266 69.1422 60.1802 69.1078 60.1287 69.0907C59.8196 68.9533 59.459 68.9017 59.0985 68.8674C58.4632 68.8502 57.8622 69.1765 57.4158 69.6059C56.9866 70.0352 56.729 70.602 56.729 71.2374C56.729 72.4567 57.6047 73.5902 58.8409 73.5902C59.6307 73.5902 60.266 73.1094 60.3519 72.9033C60.3862 72.8174 60.4034 73.2124 60.4034 73.2467C60.4034 73.3154 60.4549 73.5215 60.5579 73.5215C60.6094 73.5215 61.7083 73.5559 61.7598 73.5215C61.7598 73.5215 61.8456 73.4185 61.8628 73.2811C61.8628 73.2811 61.7254 73.1437 61.6568 73.1437H61.2275C61.0387 73.1437 61.073 72.6285 61.073 72.5254L61.0558 66.6176Z" fill="#004572"/>
<path d="M16.1053 11.9531H3.93188V1.47699L0.618103 2.49025V24.9022H3.93188V15.0444H16.1053V24.9022H19.419V1.47699L16.1053 2.49025V11.9531Z" fill="#004572"/>
<path d="M37.3271 0.858704L27.197 24.9022H30.5966L32.657 19.9904H42.0145L44.0749 24.9022H47.4745L37.3271 0.858704ZM40.7268 16.8991H33.9619L37.3271 8.86175L40.7268 16.8991Z" fill="#004572"/>
<path d="M97.0094 17.8952C97.0094 15.3878 95.9964 13.6017 93.9017 12.4854C95.344 11.5409 96.0136 10.0811 96.0136 7.95152C96.0136 5.15217 94.7774 1.82043 88.8366 1.82043H81.5909V24.9022H88.8366C93.7987 24.9022 97.0094 22.1544 97.0094 17.8952ZM88.8366 10.9054H84.9047V5.15217H88.8366C92.2706 5.15217 92.6826 6.74935 92.6826 7.95152C92.6826 9.9437 91.4121 10.9054 88.8366 10.9054ZM89.6092 21.5876H84.9047V14.22H89.6092C91.8757 14.22 93.6613 15.8344 93.6613 17.8952C93.6613 19.9733 91.8757 21.5876 89.6092 21.5876Z" fill="#004572"/>
<path d="M129.134 13.3957C129.134 6.76655 123.743 1.39111 117.132 1.39111C110.505 1.39111 105.114 6.76655 105.114 13.3957C105.114 20.0076 110.505 25.4002 117.132 25.4002C123.743 25.4002 129.134 20.0076 129.134 13.3957ZM125.752 13.3957C125.752 18.2902 121.888 22.2746 117.132 22.2746C112.376 22.2746 108.496 18.2902 108.496 13.3957C108.496 8.50111 112.376 4.51677 117.132 4.51677C121.888 4.51677 125.752 8.50111 125.752 13.3957Z" fill="#004572"/>
<path d="M155.765 15.405V1.47699L152.451 2.49025V15.405C152.451 18.7024 151.833 22.4807 146.922 22.4807C143.025 22.4807 141.119 20.1622 141.119 15.405V1.47699L137.805 2.49025V15.405C137.788 19.0116 138.595 21.5705 140.277 23.2707C141.788 24.782 144.02 25.5548 146.922 25.5548C154.803 25.5548 155.747 19.7672 155.765 15.405Z" fill="#004572"/>
<path d="M59.15 18.8398H62.6526L66.9622 24.9022H71.2547L66.4471 18.17C69.2802 16.7789 71.0487 13.7907 71.0487 10.3902C71.0487 5.87349 67.7692 2.09522 63.7515 1.97501V1.90631H55.7847V24.9022H59.15V18.8398ZM67.9581 10.3902C67.9581 13.2926 65.9492 15.697 63.4253 15.8515L59.15 15.8687V4.96327H63.7C66.1209 5.25522 67.9581 7.59088 67.9581 10.3902Z" fill="#004572"/>
<path d="M176.557 18.17C179.39 16.7789 181.159 13.7907 181.159 10.3902C181.159 5.87349 177.879 2.09522 173.862 1.97501V1.90631H165.895V24.9022H169.26V18.8398H172.763L177.072 24.9022H181.382L176.557 18.17ZM178.068 10.3902C178.068 13.2926 176.059 15.697 173.535 15.8515L169.26 15.8687V4.96327H173.81C176.231 5.25522 178.068 7.59088 178.068 10.3902Z" fill="#004572"/>
<path d="M27.2656 30.1059L23.9519 31.1192V53.5998H37.5332L38.5806 50.5257H27.2656V30.1059Z" fill="#004572"/>
<path d="M46.3928 53.5998H49.7066V30.1574L46.3928 31.1707V53.5998Z" fill="#004572"/>
<path d="M70.7568 45.4937H76.6804V48.9113C75.7017 49.7356 73.7958 50.955 71.1689 50.955C66.3957 50.955 62.5324 46.9706 62.5324 42.0761C62.5324 37.1815 66.3613 33.1972 71.0658 33.1972C75.427 33.1972 77.7277 36.3228 77.7449 36.3572L78.569 37.4906V32.6476L78.3974 32.5102C74.9634 29.8482 71.2032 30.0715 71.0658 30.0715C64.507 30.0715 59.15 35.4641 59.15 42.0761C59.15 48.7052 64.5413 54.0806 71.1517 54.0806C71.186 54.0978 71.2375 54.0978 71.3234 54.0978C72.2849 54.0978 76.5773 53.8745 79.8911 50.3024L80.0113 50.165V42.4024H71.787L70.7568 45.4937Z" fill="#004572"/>
<path d="M105.715 40.6335H93.5411V30.1574L90.2274 31.1707V53.5998H93.5411V43.742H105.715V53.5998H109.028V30.1574L105.715 31.1707V40.6335Z" fill="#004572"/>
<path d="M116.841 33.6952H124.584V53.5998H127.898V33.6952H134.611L135.641 30.6039H117.888L116.841 33.6952Z" fill="#004572"/>
<path d="M150.768 40.2041L150.356 40.0496C147.969 39.1909 145.497 38.315 145.497 36.5117C145.497 34.2963 146.785 33.2659 149.549 33.2659C152.451 33.2659 154.58 34.5024 155.524 35.55L156.314 36.443V32.4415L156.177 32.3041C155.49 31.6172 153.481 30.0372 149.549 30.0372C145.909 30.0372 142.029 31.7374 142.029 36.5117C142.029 40.7537 146.75 42.368 149.017 43.158L149.291 43.2439C151.764 44.0854 154.58 45.0472 154.58 47.0222C154.58 49.4952 152.863 50.7489 149.463 50.7489C147.265 50.7489 144.055 49.1346 142.715 47.9839L141.96 47.3313V51.247L142.115 51.3843C142.99 52.14 145.428 53.9261 149.463 53.9261C156.554 53.9261 158.048 50.1822 158.048 47.0222C158.048 42.7459 153.67 41.2174 150.768 40.2041Z" fill="#004572"/>
</g>
<defs>
<clipPath id="clip0_256_35">
<rect width="182" height="79" fill="white"/>
</clipPath>
</defs>
</svg>
